<svg width="172" height="45" xmlns="http://www.w3.org/2000/svg">

 <g>
  <title>background</title>
  <rect fill="none" id="canvas_background" height="47" width="174" y="-1" x="-1"/>
 </g>
 <g>
  <title>Layer 1</title>
  <path id="svg_1" fill="#14161B" d="m50.3579,17.3896c1.0947,3.0106 1.6421,6.0211 1.6421,9.3053c0,3.2842 -0.5474,6.2947 -1.6421,9.3053l-9.0316,-3.8316c0.8211,-1.6421 1.0948,-3.5579 1.0948,-5.4737c0,-1.9158 -0.2737,-3.8316 -1.0948,-5.4737l9.0316,-3.8316z" clip-rule="evenodd" fill-rule="evenodd"/>
  <path id="svg_2" fill="#14161B" d="m36.6737,2.88428c5.7474,2.73684 10.4,7.38942 13.1368,13.13682l-9.0315,3.8316l0,-0.5474l5.4737,-6.5684l-7.3895,3.8316c-1.6421,-1.9158 -3.5579,-3.5579 -6.0211,-4.6526l3.8316,-9.03162z" clip-rule="evenodd" fill-rule="evenodd"/>
  <path id="svg_3" fill="#14161B" d="m10.6737,21.2212c-0.82105,1.6421 -1.09473,3.5579 -1.09473,5.4737c0,1.9158 0.27368,3.8316 1.09473,5.4737l-9.03157,3.8316c-1.094738,-3.0106 -1.642107,-6.0211 -1.642107,-9.3053c0,-3.2842 0.547369,-6.2947 1.642107,-9.3053l9.03157,3.8316z" clip-rule="evenodd" fill-rule="evenodd"/>
  <path id="svg_4" fill="#14161B" d="m19.1579,11.9159c-3.5579,1.6421 -6.2947,4.3789 -7.9368,7.9368l-9.03162,-3.8316c2.73684,-5.7474 7.38947,-10.39998 13.13682,-13.13682l3.8316,9.03162z" clip-rule="evenodd" fill-rule="evenodd"/>
  <path id="svg_5" fill="#14161B" d="m26,0.694824c3.2842,0 6.2947,0.547366 9.3053,1.642106l-3.8316,9.03157c-1.6421,-0.821 -3.5579,-1.0947 -5.4737,-1.0947c-1.9158,0 -3.8316,0.2737 -5.4737,1.0947l-3.8316,-9.03157c3.0106,-1.09474 6.0211,-1.642106 9.3053,-1.642106z" clip-rule="evenodd" fill-rule="evenodd"/>
  <path id="svg_6" fill="#14161B" d="m42.6947,15.4739l-6.2947,7.6631c-2.1895,2.4632 -4.379,4.9263 -6.2947,7.3895c-4.379,6.0211 -12.3158,-1.6421 -4.9264,-5.7474l8.7579,-4.6526l8.7579,-4.6526zm-16.6947,11.221c1.3684,0 2.1895,1.0948 2.1895,2.1895c0,1.3684 -0.8211,2.4632 -2.1895,2.4632c-1.3684,0 -2.1895,-1.0948 -2.1895,-2.4632c0,-1.0947 0.8211,-2.1895 2.1895,-2.1895z" clip-rule="evenodd" fill-rule="evenodd"/>
  <path id="svg_7" fill="#14161B" d="m70.379,17.013c-0.234,0.0347 -0.4333,-0.0173 -0.598,-0.156c-0.1647,-0.1387 -0.2427,-0.3207 -0.234,-0.546c-0.0087,-0.7887 -0.039,-1.9933 -0.091,-3.614c-0.0607,-1.508 -0.1127,-2.82967 -0.156,-3.965c0,-0.24267 0.091,-0.468 0.273,-0.676c0.182,-0.208 0.3987,-0.338 0.65,-0.39c0.2513,-0.052 0.468,-0.00867 0.65,0.13c0.182,0.13867 0.273,0.32933 0.273,0.572c0.052,0.97067 0.117,2.6303 0.195,4.979c1.04,-1.7507 2.0757,-3.45367 3.107,-5.109c0.104,-0.17333 0.2427,-0.30767 0.416,-0.403c0.182,-0.104 0.364,-0.156 0.546,-0.156c0.208,0 0.3857,0.065 0.533,0.195c0.1473,0.12133 0.221,0.53733 0.221,1.248l0.364,2.613l0.182,1.703c0.1127,-0.2167 0.4593,-0.949 1.04,-2.197c0.5807,-1.248 1.0703,-2.236 1.469,-2.964c0.1213,-0.234 0.3033,-0.41167 0.546,-0.533c0.2513,-0.12133 0.4853,-0.14733 0.702,-0.078c0.2253,0.06933 0.377,0.21667 0.455,0.442c0.078,0.21667 0.0563,0.44633 -0.065,0.689c-0.3987,0.71933 -0.832,1.5817 -1.3,2.587c-0.4593,1.0053 -0.7583,1.6423 -0.897,1.911l-0.793,1.547l-0.741,1.469c-0.0953,0.182 -0.2297,0.3337 -0.403,0.455c-0.1733,0.1213 -0.351,0.1907 -0.533,0.208c-0.2427,0.0607 -0.455,0.039 -0.637,-0.065c-0.182,-0.104 -0.2903,-0.2643 -0.325,-0.481c-0.2167,-1.248 -0.403,-2.6303 -0.559,-4.147c-0.026,-0.26 -0.0693,-0.5937 -0.13,-1.001l-3.055,5.148c-0.1213,0.1993 -0.286,0.3553 -0.494,0.468c-0.1993,0.104 -0.403,0.143 -0.611,0.117zm16.5918,0c-1.2827,0 -3.029,-0.013 -5.239,-0.039c-0.1734,0 -0.3207,-0.0477 -0.442,-0.143c-0.1214,-0.104 -0.2037,-0.2297 -0.247,-0.377c-0.0694,-0.156 -0.0824,-0.325 -0.039,-0.507c0.0693,-0.3033 0.325,-1.5253 0.767,-3.666c0.3206,-1.56 0.6196,-2.78633 0.897,-3.679c0.0346,-0.11267 0.0823,-0.21667 0.143,-0.312c0.104,-0.17333 0.2383,-0.312 0.403,-0.416c0.1733,-0.11267 0.3596,-0.17333 0.559,-0.182c0.6326,-0.00867 1.4863,-0.00867 2.561,0c1.0746,0 1.9283,-0.00433 2.561,-0.013c0.2513,0 0.4463,0.08667 0.585,0.26c0.1386,0.17333 0.182,0.38567 0.13,0.637c-0.052,0.24267 -0.182,0.455 -0.39,0.637c-0.1994,0.17333 -0.4247,0.26 -0.676,0.26c-0.4854,0 -1.209,0 -2.171,0c-0.962,-0.00867 -1.6857,-0.00867 -2.171,0c-0.1387,0.5287 -0.2904,1.1527 -0.455,1.872c0.416,-0.0087 1.6986,-0.013 3.848,-0.013c0.2513,0 0.4463,0.0867 0.585,0.26c0.1473,0.1733 0.195,0.3857 0.143,0.637c-0.052,0.2427 -0.1864,0.455 -0.403,0.637c-0.2167,0.1733 -0.4507,0.26 -0.702,0.26c-2.158,0 -3.4364,0.0043 -3.835,0.013c-0.1907,0.9707 -0.3337,1.6553 -0.429,2.054c1.7593,0.0173 3.2283,0.026 4.407,0.026c0.2513,0 0.442,0.0867 0.572,0.26c0.1386,0.1733 0.182,0.3857 0.13,0.637c-0.052,0.2513 -0.1864,0.4637 -0.403,0.637c-0.208,0.1733 -0.4377,0.26 -0.689,0.26zm5.7954,0.039c-0.1733,0 -0.4766,-0.0087 -0.91,-0.026l-1.066,-0.052c-0.026,0.0087 -0.0606,0.013 -0.104,0.013c-0.1473,0 -0.2816,-0.0347 -0.403,-0.104c-0.234,-0.13 -0.351,-0.3423 -0.351,-0.637c0,-0.0867 0.0044,-0.1517 0.013,-0.195c0.0087,-0.026 0.0304,-0.0867 0.065,-0.182l0.481,-2.171c0.234,-1.0573 0.416,-1.95 0.546,-2.678c0.1387,-0.7367 0.2557,-1.46467 0.351,-2.184c0.0347,-0.24267 0.1387,-0.455 0.312,-0.637c0.182,-0.19067 0.39,-0.30767 0.624,-0.351c0.13,-0.078 0.286,-0.12567 0.468,-0.143l1.586,-0.052c1.222,0 2.132,0.20367 2.73,0.611c0.598,0.39867 0.897,0.96633 0.897,1.703c0,0.4507 -0.1213,0.8667 -0.364,1.248c-0.234,0.3727 -0.507,0.6153 -0.819,0.728c0.416,0.1733 0.7107,0.3987 0.884,0.676c0.182,0.2773 0.273,0.6153 0.273,1.014c0,0.5373 -0.117,1.001 -0.351,1.391c-0.26,0.4247 -0.6716,0.8147 -1.235,1.17c-0.8493,0.5113 -1.885,0.793 -3.107,0.845c-0.1126,0.0087 -0.286,0.013 -0.52,0.013zm0.819,-1.794c0.5114,-0.026 0.9144,-0.065 1.209,-0.117c0.2947,-0.052 0.559,-0.1473 0.793,-0.286c0.2254,-0.1387 0.3727,-0.2687 0.442,-0.39c0.078,-0.13 0.1127,-0.312 0.104,-0.546c-0.0173,-0.416 -0.364,-0.663 -1.04,-0.741c-0.312,-0.0347 -0.7323,-0.0477 -1.261,-0.039l-1.456,-0.013l-0.429,2.093c0.078,0.0087 0.1474,0.013 0.208,0.013c0.0607,0 0.117,0.0043 0.169,0.013c0.6414,0.0173 1.0617,0.0217 1.261,0.013zm0.611,-3.861c0.5634,0 1.0444,-0.104 1.443,-0.312c0.3467,-0.1907 0.52,-0.4247 0.52,-0.702c0,-0.2513 -0.1646,-0.455 -0.494,-0.611c-0.3206,-0.16467 -0.78,-0.247 -1.378,-0.247c-0.4766,0 -0.8753,0.00867 -1.196,0.026l-0.091,0.546l-0.208,1.209c0.5114,0.0607 0.9794,0.091 1.404,0.091zm12.3468,5.707c-1.023,0 -1.79,-0.2167 -2.301,-0.65c-0.512,-0.4333 -0.767,-1.001 -0.767,-1.703c0,-0.5113 0.108,-0.8927 0.325,-1.144c0.225,-0.2513 0.489,-0.377 0.793,-0.377c0.199,0 0.372,0.0607 0.52,0.182c0.147,0.1127 0.221,0.2773 0.221,0.494c0,0.0173 -0.013,0.182 -0.039,0.494l-0.026,0.26c0,0.1993 0.121,0.3683 0.364,0.507c0.251,0.1387 0.615,0.208 1.092,0.208c0.303,0 0.593,-0.052 0.871,-0.156c0.286,-0.104 0.515,-0.2427 0.689,-0.416c0.173,-0.1733 0.26,-0.3553 0.26,-0.546c0,-0.156 -0.065,-0.3033 -0.195,-0.442c-0.122,-0.1387 -0.338,-0.273 -0.65,-0.403l-0.507,-0.195c-0.148,-0.052 -0.308,-0.1083 -0.481,-0.169c-0.174,-0.0693 -0.356,-0.143 -0.546,-0.221c-1.3,-0.5287 -1.95,-1.3043 -1.95,-2.327c0,-0.51133 0.169,-0.99233 0.507,-1.443c0.338,-0.45067 0.784,-0.81033 1.339,-1.079c0.554,-0.26867 1.144,-0.403 1.768,-0.403c0.918,0 1.668,0.221 2.249,0.663c0.58,0.442 0.871,1.06167 0.871,1.859c0,0.4247 -0.091,0.754 -0.273,0.988c-0.182,0.2253 -0.425,0.338 -0.728,0.338c-0.269,0 -0.486,-0.0693 -0.65,-0.208c-0.156,-0.1387 -0.234,-0.325 -0.234,-0.559c0,-0.2253 -0.005,-0.3813 -0.013,-0.468c-0.009,-0.0953 -0.048,-0.1863 -0.117,-0.273c-0.122,-0.156 -0.317,-0.29033 -0.585,-0.403c-0.26,-0.12133 -0.568,-0.18633 -0.923,-0.195c-0.425,0 -0.759,0.08667 -1.001,0.26c-0.243,0.17333 -0.364,0.377 -0.364,0.611c0,0.2253 0.091,0.403 0.273,0.533c0.19,0.13 0.546,0.3033 1.066,0.52c0.138,0.052 0.242,0.0953 0.312,0.13c0.502,0.1907 0.927,0.3727 1.274,0.546c0.494,0.2427 0.853,0.52 1.079,0.832c0.234,0.312 0.351,0.7107 0.351,1.196c0,0.5893 -0.195,1.1267 -0.585,1.612c-0.382,0.4767 -0.876,0.8537 -1.482,1.131c-0.598,0.2773 -1.201,0.416 -1.807,0.416zm7.264,-0.923c-0.052,0.2513 -0.187,0.468 -0.403,0.65c-0.217,0.1733 -0.451,0.26 -0.702,0.26c-0.252,0 -0.447,-0.0867 -0.585,-0.26c-0.139,-0.182 -0.182,-0.3987 -0.13,-0.65c0.052,-0.2513 0.307,-1.5123 0.767,-3.783c0.468,-2.2707 0.745,-3.53167 0.832,-3.783c0.06,-0.25133 0.199,-0.45933 0.416,-0.624c0.216,-0.17333 0.45,-0.26 0.702,-0.26c0.043,0 0.086,0.00433 0.13,0.013c0.017,0 0.039,-0.00433 0.065,-0.013c1.092,-0.17333 1.932,-0.24267 2.522,-0.208c1.17,0.078 1.976,0.48967 2.418,1.235c0.346,0.572 0.455,1.183 0.325,1.833c-0.13,0.65 -0.447,1.196 -0.949,1.638c-0.425,0.3727 -0.915,0.663 -1.469,0.871c-0.555,0.208 -1.097,0.325 -1.625,0.351c-0.182,0.0087 -0.373,0.0087 -0.572,0c-0.191,-0.0087 -0.425,-0.026 -0.702,-0.052c-0.278,-0.026 -0.434,-0.0433 -0.468,-0.052c-0.26,1.3087 -0.451,2.2533 -0.572,2.834zm2.613,-4.55c0.32,-0.0087 0.637,-0.0693 0.949,-0.182c0.312,-0.1213 0.554,-0.2643 0.728,-0.429c0.086,-0.078 0.147,-0.1473 0.182,-0.208c0.043,-0.0693 0.065,-0.195 0.065,-0.377c0,-0.182 -0.048,-0.3597 -0.143,-0.533c-0.208,-0.338 -0.633,-0.52433 -1.274,-0.559c-0.434,-0.026 -1.006,0.013 -1.716,0.117c-0.13,0.5807 -0.282,1.2697 -0.455,2.067l0.013,0l0.598,0.065c0.216,0.0173 0.407,0.0303 0.572,0.039c0.164,0.0087 0.325,0.0087 0.481,0zm10.312,5.382c-1.283,0 -3.029,-0.013 -5.239,-0.039c-0.174,0 -0.321,-0.0477 -0.442,-0.143c-0.122,-0.104 -0.204,-0.2297 -0.247,-0.377c-0.07,-0.156 -0.083,-0.325 -0.039,-0.507c0.069,-0.3033 0.325,-1.5253 0.767,-3.666c0.32,-1.56 0.619,-2.78633 0.897,-3.679c0.034,-0.11267 0.082,-0.21667 0.143,-0.312c0.104,-0.17333 0.238,-0.312 0.403,-0.416c0.173,-0.11267 0.359,-0.17333 0.559,-0.182c0.632,-0.00867 1.486,-0.00867 2.561,0c1.074,0 1.928,-0.00433 2.561,-0.013c0.251,0 0.446,0.08667 0.585,0.26c0.138,0.17333 0.182,0.38567 0.13,0.637c-0.052,0.24267 -0.182,0.455 -0.39,0.637c-0.2,0.17333 -0.425,0.26 -0.676,0.26c-0.486,0 -1.209,0 -2.171,0c-0.962,-0.00867 -1.686,-0.00867 -2.171,0c-0.139,0.5287 -0.291,1.1527 -0.455,1.872c0.416,-0.0087 1.698,-0.013 3.848,-0.013c0.251,0 0.446,0.0867 0.585,0.26c0.147,0.1733 0.195,0.3857 0.143,0.637c-0.052,0.2427 -0.187,0.455 -0.403,0.637c-0.217,0.1733 -0.451,0.26 -0.702,0.26c-2.158,0 -3.437,0.0043 -3.835,0.013c-0.191,0.9707 -0.334,1.6553 -0.429,2.054c1.759,0.0173 3.228,0.026 4.407,0.026c0.251,0 0.442,0.0867 0.572,0.26c0.138,0.1733 0.182,0.3857 0.13,0.637c-0.052,0.2513 -0.187,0.4637 -0.403,0.637c-0.208,0.1733 -0.438,0.26 -0.689,0.26zm8.98,0c-1.283,0 -3.029,-0.013 -5.239,-0.039c-0.173,0 -0.321,-0.0477 -0.442,-0.143c-0.121,-0.104 -0.204,-0.2297 -0.247,-0.377c-0.069,-0.156 -0.082,-0.325 -0.039,-0.507c0.069,-0.3033 0.325,-1.5253 0.767,-3.666c0.321,-1.56 0.62,-2.78633 0.897,-3.679c0.035,-0.11267 0.082,-0.21667 0.143,-0.312c0.104,-0.17333 0.238,-0.312 0.403,-0.416c0.173,-0.11267 0.36,-0.17333 0.559,-0.182c0.633,-0.00867 1.486,-0.00867 2.561,0c1.075,0 1.928,-0.00433 2.561,-0.013c0.251,0 0.446,0.08667 0.585,0.26c0.139,0.17333 0.182,0.38567 0.13,0.637c-0.052,0.24267 -0.182,0.455 -0.39,0.637c-0.199,0.17333 -0.425,0.26 -0.676,0.26c-0.485,0 -1.209,0 -2.171,0c-0.962,-0.00867 -1.686,-0.00867 -2.171,0c-0.139,0.5287 -0.29,1.1527 -0.455,1.872c0.416,-0.0087 1.699,-0.013 3.848,-0.013c0.251,0 0.446,0.0867 0.585,0.26c0.147,0.1733 0.195,0.3857 0.143,0.637c-0.052,0.2427 -0.186,0.455 -0.403,0.637c-0.217,0.1733 -0.451,0.26 -0.702,0.26c-2.158,0 -3.436,0.0043 -3.835,0.013c-0.191,0.9707 -0.334,1.6553 -0.429,2.054c1.759,0.0173 3.228,0.026 4.407,0.026c0.251,0 0.442,0.0867 0.572,0.26c0.139,0.1733 0.182,0.3857 0.13,0.637c-0.052,0.2513 -0.186,0.4637 -0.403,0.637c-0.208,0.1733 -0.438,0.26 -0.689,0.26zm3.689,-0.026c-0.234,-0.0087 -0.42,-0.0997 -0.559,-0.273c-0.138,-0.1733 -0.182,-0.3857 -0.13,-0.637l0.78,-3.744c0.26,-1.3087 0.533,-2.51767 0.819,-3.627c0.061,-0.234 0.2,-0.43767 0.416,-0.611c0.226,-0.17333 0.464,-0.25567 0.715,-0.247c0.139,-0.03467 0.395,-0.065 0.767,-0.091c0.373,-0.03467 0.78,-0.052 1.222,-0.052c1.162,0 2.089,0.29033 2.782,0.871c0.702,0.572 1.053,1.40833 1.053,2.509c0,0.8407 -0.208,1.6597 -0.624,2.457c-0.416,0.7973 -0.944,1.495 -1.586,2.093c-0.528,0.4853 -1.122,0.8363 -1.781,1.053c-0.658,0.208 -1.326,0.312 -2.002,0.312c-1.014,0 -1.638,-0.0043 -1.872,-0.013zm1.3,-1.703c0.512,0 0.85,-0.0043 1.014,-0.013c0.659,-0.0347 1.196,-0.1517 1.612,-0.351c0.416,-0.1993 0.789,-0.507 1.118,-0.923c0.338,-0.4333 0.59,-0.8797 0.754,-1.339c0.165,-0.4593 0.247,-0.8927 0.247,-1.3c0,-0.6673 -0.199,-1.157 -0.598,-1.469c-0.39,-0.32067 -1.035,-0.481 -1.937,-0.481c-0.294,0 -0.624,0.013 -0.988,0.039l-0.416,1.898l-0.468,2.301c-0.13,0.65 -0.242,1.196 -0.338,1.638zm-67.969,17.703c-0.78,0 -1.482,-0.156 -2.106,-0.468c-0.6153,-0.3207 -1.1007,-0.7713 -1.456,-1.352c-0.3553,-0.5893 -0.533,-1.2653 -0.533,-2.028c0,-0.9967 0.2427,-1.9197 0.728,-2.769c0.494,-0.858 1.157,-1.5383 1.989,-2.041c0.8407,-0.5027 1.7507,-0.754 2.73,-0.754c0.2253,0 0.39,0.0087 0.494,0.026c0.104,0.0173 0.2643,0.0607 0.481,0.13l0.325,0.104c0.1647,0.052 0.3337,0.1083 0.507,0.169c0.1733,0.0607 0.3207,0.13 0.442,0.208c0.494,0.338 0.8797,0.7973 1.157,1.378c0.2773,0.572 0.416,1.2177 0.416,1.937c0,0.936 -0.2383,1.8243 -0.715,2.665c-0.468,0.8407 -1.1007,1.5167 -1.898,2.028c-0.7887,0.5113 -1.6423,0.767 -2.561,0.767zm0.299,-1.755c0.5807,0 1.1007,-0.156 1.56,-0.468c0.468,-0.3207 0.832,-0.7367 1.092,-1.248c0.2687,-0.52 0.403,-1.066 0.403,-1.638c0,-0.4073 -0.0953,-0.832 -0.286,-1.274c-0.182,-0.442 -0.4117,-0.754 -0.689,-0.936c-0.104,-0.0693 -0.2947,-0.1343 -0.572,-0.195c-0.0607,-0.0173 -0.1257,-0.0347 -0.195,-0.052c-0.0693,-0.026 -0.143,-0.0477 -0.221,-0.065c-0.2253,-0.0173 -0.416,-0.026 -0.572,-0.026c-0.546,0 -1.0573,0.1647 -1.534,0.494c-0.4767,0.3207 -0.8537,0.7497 -1.131,1.287c-0.2773,0.5373 -0.416,1.105 -0.416,1.703c0,0.7887 0.221,1.391 0.663,1.807c0.4507,0.4073 1.0833,0.611 1.898,0.611zm7.7482,0.949c-0.052,0.2513 -0.1863,0.468 -0.403,0.65c-0.2167,0.1733 -0.4507,0.26 -0.702,0.26c-0.2513,0 -0.4463,-0.0867 -0.585,-0.26c-0.1387,-0.182 -0.182,-0.3987 -0.13,-0.65c0.052,-0.2513 0.3077,-1.5123 0.767,-3.783c0.468,-2.2707 0.7453,-3.5317 0.832,-3.783c0.0607,-0.2513 0.1993,-0.4593 0.416,-0.624c0.2167,-0.1733 0.4507,-0.26 0.702,-0.26c0.0433,0 0.0867,0.0043 0.13,0.013c0.0173,0 0.039,-0.0043 0.065,-0.013c1.092,-0.1733 1.9327,-0.2427 2.522,-0.208c1.17,0.078 1.976,0.4897 2.418,1.235c0.3467,0.572 0.455,1.183 0.325,1.833c-0.13,0.65 -0.4463,1.196 -0.949,1.638c-0.4247,0.3727 -0.9143,0.663 -1.469,0.871c-0.5547,0.208 -1.0963,0.325 -1.625,0.351c-0.182,0.0087 -0.3727,0.0087 -0.572,0c-0.1907,-0.0087 -0.4247,-0.026 -0.702,-0.052c-0.2773,-0.026 -0.4333,-0.0433 -0.468,-0.052c-0.26,1.3087 -0.4507,2.2533 -0.572,2.834zm2.613,-4.55c0.3207,-0.0087 0.637,-0.0693 0.949,-0.182c0.312,-0.1213 0.5547,-0.2643 0.728,-0.429c0.0867,-0.078 0.1473,-0.1473 0.182,-0.208c0.0433,-0.0693 0.065,-0.195 0.065,-0.377c0,-0.182 -0.0477,-0.3597 -0.143,-0.533c-0.208,-0.338 -0.6327,-0.5243 -1.274,-0.559c-0.4333,-0.026 -1.0053,0.013 -1.716,0.117c-0.13,0.5807 -0.2817,1.2697 -0.455,2.067l0.013,0l0.598,0.065c0.2167,0.0173 0.4073,0.0303 0.572,0.039c0.1647,0.0087 0.325,0.0087 0.481,0zm7.868,4.472c-0.0607,0.2513 -0.1994,0.4637 -0.416,0.637c-0.208,0.1733 -0.4377,0.26 -0.689,0.26c-0.2514,-0.0087 -0.4464,-0.0997 -0.585,-0.273c-0.1387,-0.182 -0.1777,-0.3987 -0.117,-0.65c0.0606,-0.2687 0.3163,-1.495 0.767,-3.679c0.2253,-1.118 0.4463,-2.093 0.663,-2.925c-0.6934,0.0087 -1.2784,0.013 -1.755,0.013c-0.2514,0 -0.4507,-0.0823 -0.598,-0.247c-0.1387,-0.1647 -0.1864,-0.3727 -0.143,-0.624c0.052,-0.2513 0.182,-0.4593 0.39,-0.624c0.2166,-0.1733 0.4506,-0.26 0.702,-0.26c0.5546,0 1.4733,-0.0043 2.756,-0.013c1.2826,-0.0087 2.2013,-0.013 2.756,-0.013c0.2513,0 0.4463,0.0823 0.585,0.247c0.1473,0.156 0.195,0.3597 0.143,0.611c-0.0434,0.2427 -0.1734,0.455 -0.39,0.637c-0.208,0.1733 -0.4334,0.26 -0.676,0.26c-0.546,0 -1.196,0.0043 -1.95,0.013c-0.208,0.7973 -0.429,1.768 -0.663,2.912c-0.4507,2.21 -0.7107,3.4493 -0.78,3.718zm4.7529,0.936c-0.2513,0 -0.4507,-0.0823 -0.598,-0.247c-0.1473,-0.1733 -0.1993,-0.3857 -0.156,-0.637c0.052,-0.2253 0.169,-0.4247 0.351,-0.598c0.182,-0.182 0.3813,-0.2903 0.598,-0.325c0.3293,-1.508 0.7323,-3.419 1.209,-5.733c-0.1993,-0.0433 -0.351,-0.1473 -0.455,-0.312c-0.104,-0.1647 -0.13,-0.3597 -0.078,-0.585c0.052,-0.2513 0.1863,-0.4637 0.403,-0.637c0.2167,-0.1733 0.4507,-0.26 0.702,-0.26l1.469,0.013c0.2513,0 0.442,0.091 0.5719,0.273c0.139,0.182 0.182,0.3987 0.13,0.65c-0.043,0.2167 -0.156,0.4073 -0.3379,0.572c-0.1733,0.1647 -0.3727,0.2687 -0.598,0.312c-0.4593,2.2793 -0.8537,4.1687 -1.183,5.668c0.208,0.0347 0.364,0.1343 0.468,0.299c0.1127,0.1647 0.1517,0.3553 0.117,0.572c-0.052,0.2513 -0.182,0.468 -0.39,0.65c-0.208,0.182 -0.4377,0.2773 -0.689,0.286l-1.534,0.039zm13.8609,-0.91c-0.06,0.2513 -0.203,0.4637 -0.429,0.637c-0.216,0.1733 -0.45,0.2557 -0.702,0.247c-0.242,-0.0087 -0.433,-0.104 -0.572,-0.286c-0.138,-0.182 -0.173,-0.3987 -0.104,-0.65c0.13,-0.5633 0.473,-2.2273 1.027,-4.992c-0.814,0.806 -1.629,1.6683 -2.444,2.587c-0.19,0.208 -0.416,0.338 -0.676,0.39c-0.251,0.0433 -0.463,-0.0043 -0.637,-0.143c-0.026,-0.0173 -0.043,-0.0347 -0.052,-0.052c-0.086,-0.0607 -0.156,-0.1343 -0.208,-0.221l-1.456,-2.522c0,0.0173 -0.177,0.8493 -0.533,2.496c-0.346,1.638 -0.524,2.4613 -0.533,2.47c-0.052,0.2513 -0.186,0.468 -0.403,0.65c-0.208,0.1733 -0.437,0.26 -0.689,0.26c-0.251,0 -0.45,-0.0867 -0.598,-0.26c-0.138,-0.182 -0.182,-0.3987 -0.13,-0.65c0.078,-0.364 0.208,-0.975 0.39,-1.833c0.191,-0.858 0.334,-1.521 0.429,-1.989c0.104,-0.468 0.221,-1.0487 0.351,-1.742c0.113,-0.6153 0.221,-1.2523 0.325,-1.911c0.035,-0.2513 0.152,-0.4723 0.351,-0.663c0.208,-0.1907 0.442,-0.2947 0.702,-0.312c0.13,-0.0087 0.247,0.0087 0.351,0.052c0.234,0.0347 0.403,0.1517 0.507,0.351l2.119,3.627c1.214,-1.3 2.414,-2.47 3.601,-3.51c0.252,-0.312 0.551,-0.4637 0.897,-0.455c0.252,0.0087 0.442,0.104 0.572,0.286c0.139,0.182 0.178,0.3987 0.117,0.65c-0.199,0.8233 -0.468,2.0843 -0.806,3.783c-0.329,1.69 -0.585,2.925 -0.767,3.705zm2.792,0.91c-0.251,0 -0.45,-0.0823 -0.598,-0.247c-0.147,-0.1733 -0.199,-0.3857 -0.156,-0.637c0.052,-0.2253 0.169,-0.4247 0.351,-0.598c0.182,-0.182 0.382,-0.2903 0.598,-0.325c0.33,-1.508 0.733,-3.419 1.209,-5.733c-0.199,-0.0433 -0.351,-0.1473 -0.455,-0.312c-0.104,-0.1647 -0.13,-0.3597 -0.078,-0.585c0.052,-0.2513 0.187,-0.4637 0.403,-0.637c0.217,-0.1733 0.451,-0.26 0.702,-0.26l1.469,0.013c0.252,0 0.442,0.091 0.572,0.273c0.139,0.182 0.182,0.3987 0.13,0.65c-0.043,0.2167 -0.156,0.4073 -0.338,0.572c-0.173,0.1647 -0.372,0.2687 -0.598,0.312c-0.459,2.2793 -0.853,4.1687 -1.183,5.668c0.208,0.0347 0.364,0.1343 0.468,0.299c0.113,0.1647 0.152,0.3553 0.117,0.572c-0.052,0.2513 -0.182,0.468 -0.39,0.65c-0.208,0.182 -0.437,0.2773 -0.689,0.286l-1.534,0.039zm7.427,-0.039c-1.179,0 -2.145,-0.0173 -2.899,-0.052c-0.234,-0.0087 -0.412,-0.104 -0.533,-0.286c-0.122,-0.182 -0.152,-0.3943 -0.091,-0.637c0.06,-0.2427 0.203,-0.4507 0.429,-0.624c0.303,-0.2773 0.819,-0.7973 1.547,-1.56c2.634,-2.4093 4.138,-3.8567 4.511,-4.342c-1.89,0.0347 -3.263,0.0217 -4.121,-0.039c-0.243,-0.0173 -0.425,-0.117 -0.546,-0.299c-0.113,-0.182 -0.135,-0.3987 -0.065,-0.65c0.069,-0.2513 0.208,-0.455 0.416,-0.611c0.216,-0.1647 0.442,-0.2383 0.676,-0.221c0.563,0.0347 1.148,0.0563 1.755,0.065c0.615,0.0087 1.317,0.0043 2.106,-0.013c0.797,-0.0173 1.391,-0.026 1.781,-0.026c0.234,0 0.416,0.0867 0.546,0.26c0.138,0.1733 0.182,0.3813 0.13,0.624c-0.052,0.2253 -0.161,0.4203 -0.325,0.585c-0.018,0.026 -0.035,0.052 -0.052,0.078c-0.399,0.598 -0.815,1.118 -1.248,1.56c-0.425,0.4333 -1.894,1.794 -4.407,4.082l-0.325,0.325c0.286,0 0.632,0.0087 1.04,0.026c1.664,-0.0347 2.665,-0.052 3.003,-0.052c0.234,0 0.416,0.0867 0.546,0.26c0.138,0.1733 0.182,0.3813 0.13,0.624c-0.052,0.234 -0.182,0.4377 -0.39,0.611c-0.208,0.1733 -0.429,0.26 -0.663,0.26c-0.321,0 -1.305,0.0173 -2.951,0.052zm4.805,-0.533c-0.017,-0.0867 -0.026,-0.1517 -0.026,-0.195c0,-0.1647 0.052,-0.3293 0.156,-0.494l4.511,-7.371c0.295,-0.4767 0.65,-0.715 1.066,-0.715c0.243,0 0.438,0.065 0.585,0.195c0.148,0.1213 0.243,0.2947 0.286,0.52l0.364,2.21l0.429,2.795l0.377,2.34c0.035,0.2253 0.005,0.4333 -0.091,0.624c-0.086,0.1907 -0.212,0.3423 -0.377,0.455c-0.156,0.1127 -0.316,0.169 -0.481,0.169c-0.433,0 -0.689,-0.1863 -0.767,-0.559l-0.312,-1.976l-2.886,0.065l-1.131,1.937c-0.112,0.1733 -0.26,0.312 -0.442,0.416c-0.173,0.0953 -0.351,0.143 -0.533,0.143c-0.173,0 -0.325,-0.0477 -0.455,-0.143c-0.138,-0.0953 -0.229,-0.234 -0.273,-0.416zm5.434,-3.731l-0.26,-1.885l-1.235,1.911l1.495,-0.026zm6.267,3.367c-0.061,0.2513 -0.199,0.4637 -0.416,0.637c-0.208,0.1733 -0.438,0.26 -0.689,0.26c-0.251,-0.0087 -0.446,-0.0997 -0.585,-0.273c-0.139,-0.182 -0.178,-0.3987 -0.117,-0.65c0.061,-0.2687 0.316,-1.495 0.767,-3.679c0.225,-1.118 0.446,-2.093 0.663,-2.925c-0.693,0.0087 -1.278,0.013 -1.755,0.013c-0.251,0 -0.451,-0.0823 -0.598,-0.247c-0.139,-0.1647 -0.186,-0.3727 -0.143,-0.624c0.052,-0.2513 0.182,-0.4593 0.39,-0.624c0.217,-0.1733 0.451,-0.26 0.702,-0.26c0.555,0 1.473,-0.0043 2.756,-0.013c1.283,-0.0087 2.201,-0.013 2.756,-0.013c0.251,0 0.446,0.0823 0.585,0.247c0.147,0.156 0.195,0.3597 0.143,0.611c-0.043,0.2427 -0.173,0.455 -0.39,0.637c-0.208,0.1733 -0.433,0.26 -0.676,0.26c-0.546,0 -1.196,0.0043 -1.95,0.013c-0.208,0.7973 -0.429,1.768 -0.663,2.912c-0.451,2.21 -0.711,3.4493 -0.78,3.718zm4.753,0.936c-0.251,0 -0.451,-0.0823 -0.598,-0.247c-0.147,-0.1733 -0.199,-0.3857 -0.156,-0.637c0.052,-0.2253 0.169,-0.4247 0.351,-0.598c0.182,-0.182 0.381,-0.2903 0.598,-0.325c0.329,-1.508 0.732,-3.419 1.209,-5.733c-0.199,-0.0433 -0.351,-0.1473 -0.455,-0.312c-0.104,-0.1647 -0.13,-0.3597 -0.078,-0.585c0.052,-0.2513 0.186,-0.4637 0.403,-0.637c0.217,-0.1733 0.451,-0.26 0.702,-0.26l1.469,0.013c0.251,0 0.442,0.091 0.572,0.273c0.139,0.182 0.182,0.3987 0.13,0.65c-0.043,0.2167 -0.156,0.4073 -0.338,0.572c-0.173,0.1647 -0.373,0.2687 -0.598,0.312c-0.459,2.2793 -0.854,4.1687 -1.183,5.668c0.208,0.0347 0.364,0.1343 0.468,0.299c0.113,0.1647 0.152,0.3553 0.117,0.572c-0.052,0.2513 -0.182,0.468 -0.39,0.65c-0.208,0.182 -0.438,0.2773 -0.689,0.286l-1.534,0.039zm8.908,-0.052c-0.78,0 -1.482,-0.156 -2.106,-0.468c-0.615,-0.3207 -1.1,-0.7713 -1.456,-1.352c-0.355,-0.5893 -0.533,-1.2653 -0.533,-2.028c0,-0.9967 0.243,-1.9197 0.728,-2.769c0.494,-0.858 1.157,-1.5383 1.989,-2.041c0.841,-0.5027 1.751,-0.754 2.73,-0.754c0.226,0 0.39,0.0087 0.494,0.026c0.104,0.0173 0.265,0.0607 0.481,0.13l0.325,0.104c0.165,0.052 0.334,0.1083 0.507,0.169c0.174,0.0607 0.321,0.13 0.442,0.208c0.494,0.338 0.88,0.7973 1.157,1.378c0.278,0.572 0.416,1.2177 0.416,1.937c0,0.936 -0.238,1.8243 -0.715,2.665c-0.468,0.8407 -1.1,1.5167 -1.898,2.028c-0.788,0.5113 -1.642,0.767 -2.561,0.767zm0.299,-1.755c0.581,0 1.101,-0.156 1.56,-0.468c0.468,-0.3207 0.832,-0.7367 1.092,-1.248c0.269,-0.52 0.403,-1.066 0.403,-1.638c0,-0.4073 -0.095,-0.832 -0.286,-1.274c-0.182,-0.442 -0.411,-0.754 -0.689,-0.936c-0.104,-0.0693 -0.294,-0.1343 -0.572,-0.195c-0.06,-0.0173 -0.125,-0.0347 -0.195,-0.052c-0.069,-0.026 -0.143,-0.0477 -0.221,-0.065c-0.225,-0.0173 -0.416,-0.026 -0.572,-0.026c-0.546,0 -1.057,0.1647 -1.534,0.494c-0.476,0.3207 -0.853,0.7497 -1.131,1.287c-0.277,0.5373 -0.416,1.105 -0.416,1.703c0,0.7887 0.221,1.391 0.663,1.807c0.451,0.4073 1.084,0.611 1.898,0.611zm12.624,1.716c-0.347,0.0607 -0.607,-0.0433 -0.78,-0.312c-0.434,-0.6847 -0.949,-1.6987 -1.547,-3.042c-0.668,-1.3607 -1.153,-2.2837 -1.456,-2.769c-0.061,0.3467 -0.2,1.118 -0.416,2.314c-0.217,1.1873 -0.412,2.1753 -0.585,2.964c-0.052,0.2513 -0.187,0.468 -0.403,0.65c-0.217,0.1733 -0.451,0.26 -0.702,0.26c-0.252,0 -0.447,-0.0867 -0.585,-0.26c-0.139,-0.182 -0.182,-0.3987 -0.13,-0.65c0.164,-0.7627 0.403,-1.9933 0.715,-3.692c0.312,-1.7073 0.58,-2.9987 0.806,-3.874c0.06,-0.2513 0.199,-0.4637 0.416,-0.637c0.225,-0.1733 0.459,-0.2557 0.702,-0.247c0.121,0.0087 0.234,0.0347 0.338,0.078c0.156,0.052 0.277,0.1473 0.364,0.286c0.112,0.182 0.29,0.4723 0.533,0.871c0.251,0.39 0.437,0.6847 0.559,0.884c0.372,0.5027 0.892,1.43 1.56,2.782l0.442,0.897c0.45,-2.0107 0.801,-3.6443 1.053,-4.901c0.052,-0.2513 0.182,-0.4637 0.39,-0.637c0.216,-0.182 0.45,-0.273 0.702,-0.273c0.251,-0.0087 0.446,0.0737 0.585,0.247c0.138,0.1733 0.186,0.3857 0.143,0.637c-0.243,1.1787 -0.789,3.6877 -1.638,7.527c-0.061,0.2427 -0.191,0.4507 -0.39,0.624c-0.2,0.1647 -0.425,0.2557 -0.676,0.273z"/>
 </g>
</svg>