<svg width="159" height="50" xmlns="http://www.w3.org/2000/svg">

 <g>
  <title>background</title>
  <rect fill="none" id="canvas_background" height="52" width="161" y="-1" x="-1"/>
 </g>
 <g>
  <title>Layer 1</title>
  <path id="svg_1" fill="#14161B" d="m14.1125,37.532c-2.66,0 -4.902,-0.57 -6.726,-1.71c-1.824,-1.1653 -3.1287,-2.7867 -3.914,-4.864l5.244,-3.04c1.064,2.4573 2.926,3.686 5.586,3.686c2.4066,0 3.61,-0.722 3.61,-2.166c0,-0.8107 -0.3927,-1.4187 -1.178,-1.824c-0.8107,-0.4813 -2.2547,-1.0007 -4.332,-1.558c-2.128,-0.5827 -3.9267,-1.4187 -5.396,-2.508c-1.6214,-1.3173 -2.432,-3.1793 -2.432,-5.586c0,-2.4573 0.874,-4.4207 2.622,-5.89c1.7733,-1.4693 3.876,-2.204 6.308,-2.204c2.1786,0 4.104,0.5193 5.776,1.558c1.672,1.0133 2.9893,2.4953 3.952,4.446l-5.13,3.002c-0.9627,-2.052 -2.4954,-3.078 -4.598,-3.078c-0.8867,0 -1.5834,0.19 -2.09,0.57c-0.5067,0.38 -0.76,0.8613 -0.76,1.444c0,0.6333 0.304,1.2033 0.912,1.71c0.6586,0.5067 1.9506,1.0387 3.876,1.596l2.47,0.798c0.6333,0.2027 1.368,0.5447 2.204,1.026c0.912,0.456 1.596,0.95 2.052,1.482c1.216,1.3173 1.824,2.964 1.824,4.94c0,2.508 -0.912,4.5093 -2.736,6.004c-1.824,1.444 -4.2054,2.166 -7.144,2.166zm23.3129,-11.096l0,4.712l10.64,0l0,5.852l-16.72,0l0,-26.6l16.53,0l0,5.852l-10.45,0l0,4.408l9.5,0l0,5.776l-9.5,0zm40.8806,7.106c-2.685,2.66 -5.953,3.99 -9.804,3.99c-3.85,0 -7.118,-1.33 -9.804,-3.99c-2.685,-2.66 -4.0277,-5.9407 -4.0277,-9.842c0,-3.9013 1.3427,-7.182 4.0277,-9.842c2.686,-2.66 5.954,-3.99 9.804,-3.99c3.851,0 7.119,1.33 9.804,3.99c2.686,2.66 4.028,5.9407 4.028,9.842c0,3.9013 -1.342,7.182 -4.028,9.842zm-17.556,-9.842c0,2.3307 0.735,4.2307 2.204,5.7c1.47,1.4693 3.319,2.204 5.548,2.204c2.204,0 4.041,-0.7347 5.51,-2.204c1.495,-1.4947 2.242,-3.3947 2.242,-5.7c0,-2.3053 -0.747,-4.2053 -2.242,-5.7c-1.469,-1.4693 -3.306,-2.204 -5.51,-2.204c-2.229,0 -4.078,0.7347 -5.548,2.204c-1.469,1.4693 -2.204,3.3693 -2.204,5.7z"/>
  <path id="svg_2" fill="#14161B" d="m100.86,19.896c-0.84,0.84 -1.868,1.26 -3.084,1.26c-1.216,0 -2.248,-0.42 -3.096,-1.26c-0.84,-0.848 -1.26,-1.88 -1.26,-3.096c0,-1.216 0.42,-2.244 1.26,-3.084c0.848,-0.848 1.88,-1.272 3.096,-1.272c1.216,0 2.244,0.424 3.084,1.272c0.848,0.84 1.272,1.868 1.272,3.084c0,1.216 -0.424,2.248 -1.272,3.096zm-5.208,-0.936c0.584,0.568 1.292,0.852 2.124,0.852c0.84,0 1.544,-0.284 2.112,-0.852c0.576,-0.576 0.864,-1.296 0.864,-2.16c0,-0.864 -0.288,-1.58 -0.864,-2.148c-0.568,-0.576 -1.272,-0.864 -2.112,-0.864c-0.84,0 -1.548,0.288 -2.124,0.864c-0.568,0.568 -0.852,1.284 -0.852,2.148c0,0.856 0.284,1.576 0.852,2.16zm11.739,-6.36l3.096,0c0.792,0 1.452,0.264 1.98,0.792c0.536,0.528 0.804,1.184 0.804,1.968c0,0.776 -0.268,1.432 -0.804,1.968c-0.528,0.528 -1.188,0.792 -1.98,0.792l-1.716,0l0,2.88l-1.38,0l0,-8.4zm1.38,4.224l1.716,0c0.408,0 0.744,-0.136 1.008,-0.408c0.264,-0.28 0.396,-0.632 0.396,-1.056c0,-0.424 -0.132,-0.772 -0.396,-1.044c-0.264,-0.28 -0.6,-0.42 -1.008,-0.42l-1.716,0l0,2.928zm8.862,-4.224l6.12,0l0,1.32l-2.364,0l0,7.08l-1.38,0l0,-7.08l-2.376,0l0,-1.32zm11.141,8.4l0,-8.4l1.38,0l0,8.4l-1.38,0zm13.622,-8.4l1.476,0l0,8.4l-1.38,0l0,-5.988l-2.556,4.224l-0.168,0l-2.556,-4.236l0,6l-1.38,0l0,-8.4l1.488,0l2.532,4.2l2.544,-4.2zm7.151,8.4l0,-8.4l1.38,0l0,8.4l-1.38,0zm-50.607,7.74l-3.768,5.94l3.864,0l0,1.32l-5.58,0l0,-1.14l3.768,-5.94l-3.684,0l0,-1.32l5.4,0l0,1.14zm12.258,7.26l-1.488,0l-0.588,-1.692l-3.576,0l-0.588,1.692l-1.5,0l3.048,-8.4l1.656,0l3.036,8.4zm-3.864,-6.78l-1.332,3.792l2.664,0l-1.332,-3.792zm7.51,-1.62l6.12,0l0,1.32l-2.364,0l0,7.08l-1.38,0l0,-7.08l-2.376,0l0,-1.32zm11.141,8.4l0,-8.4l1.38,0l0,8.4l-1.38,0zm14.078,-1.104c-0.84,0.84 -1.868,1.26 -3.084,1.26c-1.216,0 -2.248,-0.42 -3.096,-1.26c-0.84,-0.848 -1.26,-1.88 -1.26,-3.096c0,-1.216 0.42,-2.244 1.26,-3.084c0.848,-0.848 1.88,-1.272 3.096,-1.272c1.216,0 2.244,0.424 3.084,1.272c0.848,0.84 1.272,1.868 1.272,3.084c0,1.216 -0.424,2.248 -1.272,3.096zm-5.208,-0.936c0.584,0.568 1.292,0.852 2.124,0.852c0.84,0 1.544,-0.284 2.112,-0.852c0.576,-0.576 0.864,-1.296 0.864,-2.16c0,-0.864 -0.288,-1.58 -0.864,-2.148c-0.568,-0.576 -1.272,-0.864 -2.112,-0.864c-0.84,0 -1.548,0.288 -2.124,0.864c-0.568,0.568 -0.852,1.284 -0.852,2.148c0,0.856 0.284,1.576 0.852,2.16zm16.779,-0.66l0,-5.7l1.38,0l0,8.4l-1.08,0l-3.96,-5.7l0,5.7l-1.38,0l0,-8.4l1.08,0l3.96,5.7z"/>
 </g>
</svg>